<?xml version="1.0" standalone="no"?>
<!DOCTYPE svg PUBLIC "-//W3C//DTD SVG 20010904//EN"
 "http://www.w3.org/TR/2001/REC-SVG-20010904/DTD/svg10.dtd">
<svg version="1.0" xmlns="http://www.w3.org/2000/svg"
 width="700.000000pt" height="700.000000pt" viewBox="0 0 700.000000 700.000000"
 preserveAspectRatio="xMidYMid meet">
<metadata>
Created by potrace 1.11, written by Peter Selinger 2001-2013
</metadata>
<g transform="translate(0.000000,700.000000) scale(0.100000,-0.100000)"
fill="#000000" stroke="none">
<path d="M3441 6898 c-67 -115 -182 -292 -193 -296 -4 -2 -8 -8 -8 -13 0 -13
-230 -322 -260 -349 -3 -3 -30 -34 -60 -70 -163 -194 -463 -489 -660 -652 -36
-29 -74 -61 -85 -70 -138 -117 -447 -336 -670 -476 -202 -126 -599 -338 -825
-440 -150 -67 -522 -210 -632 -242 -54 -16 -53 -3 -12 -155 83 -302 282 -749
499 -1120 72 -124 315 -501 347 -539 5 -6 52 -70 106 -142 53 -72 111 -148
127 -169 36 -47 277 -338 285 -345 3 -3 50 -54 105 -115 200 -224 645 -655
891 -865 115 -98 278 -232 384 -314 69 -54 132 -103 141 -111 50 -40 304 -225
431 -313 l148 -103 77 52 c181 121 579 411 688 501 11 9 63 51 115 93 154 124
172 138 209 171 20 17 61 53 91 79 577 499 1102 1073 1485 1625 355 511 634
1057 769 1502 29 94 66 238 66 252 0 2 -21 9 -47 16 -80 22 -380 134 -523 195
-228 97 -473 218 -735 365 -220 123 -540 339 -812 548 -240 184 -554 482 -773
732 -182 209 -417 536 -551 768 -30 50 -56 92 -59 92 -3 0 -29 -42 -59 -92z
m403 -2059 c129 -26 199 -50 325 -111 246 -121 459 -328 596 -582 38 -72 102
-227 116 -286 71 -282 72 -514 4 -775 -88 -336 -301 -630 -593 -820 -145 -93
-320 -160 -497 -189 -87 -15 -336 -16 -395 -2 -14 3 -58 13 -99 22 -137 30
-325 113 -444 197 -38 26 -161 131 -197 168 -139 141 -260 341 -329 545 -47
137 -62 233 -66 414 -4 190 3 268 41 413 83 324 291 621 561 805 285 194 645
267 977 201z"/>
<path d="M4218 4148 c-30 -35 -74 -85 -98 -113 -23 -27 -47 -54 -54 -60 -6 -5
-24 -26 -40 -45 -25 -30 -106 -123 -171 -196 -11 -12 -45 -50 -75 -85 -30 -35
-62 -71 -70 -79 -8 -9 -40 -45 -70 -81 -30 -35 -65 -75 -78 -89 -12 -14 -68
-77 -124 -141 l-102 -116 -23 28 c-13 15 -23 30 -23 34 0 3 -6 12 -12 20 -7 7
-42 57 -78 110 -36 53 -87 129 -114 168 l-49 70 -35 -39 c-19 -21 -49 -55 -66
-74 -17 -20 -48 -55 -69 -78 l-38 -43 94 -137 c52 -75 118 -172 147 -214 29
-43 56 -75 60 -73 4 3 7 -1 6 -8 -1 -14 125 -226 136 -227 5 0 129 138 313
349 17 19 43 48 58 65 15 16 47 52 70 80 39 46 89 103 145 165 13 14 47 53 75
86 47 53 89 101 181 205 17 19 60 69 96 110 36 41 67 77 70 80 31 31 140 160
140 165 0 11 -134 224 -141 225 -3 0 -31 -28 -61 -62z"/>
</g>
</svg>
